<svg xmlns="http://www.w3.org/2000/svg" width="600" height="600" viewBox="0 0 600 600">
  <defs>
    <linearGradient id="edith-icon-bg" x1="78" y1="522" x2="522" y2="78" gradientUnits="userSpaceOnUse">
      <stop stop-color="#51e0cf"/>
      <stop offset="0.46" stop-color="#123f3b"/>
      <stop offset="1" stop-color="#050505"/>
    </linearGradient>
    <filter id="edith-icon-shadow" x="80" y="80" width="440" height="440" color-interpolation-filters="sRGB" filterUnits="userSpaceOnUse">
      <feDropShadow dx="0" dy="24" flood-color="#000000" flood-opacity="0.32" stdDeviation="20"/>
    </filter>
  </defs>

  <rect width="600" height="600" rx="132" fill="url(#edith-icon-bg)"/>
  <circle cx="300" cy="300" r="184" fill="#050807" fill-opacity="0.42"/>

  <g filter="url(#edith-icon-shadow)">
    <path
      d="M170 287c0-88 57-151 130-151s130 63 130 151"
      fill="none"
      stroke="#51e0cf"
      stroke-linecap="round"
      stroke-width="38"
    />
    <path
      d="M205 268c42-6 76-26 95-56 19 30 53 50 95 56"
      fill="none"
      stroke="#f3fffc"
      stroke-linecap="round"
      stroke-linejoin="round"
      stroke-width="34"
    />
    <path
      d="M211 288v30c0 49 39 88 89 88s89-39 89-88v-30"
      fill="none"
      stroke="#f3fffc"
      stroke-linecap="round"
      stroke-width="38"
    />
    <path
      d="M255 311h1M345 311h1"
      fill="none"
      stroke="#f3fffc"
      stroke-linecap="round"
      stroke-width="44"
    />
    <path
      d="M266 364c18 12 50 12 68 0"
      fill="none"
      stroke="#f3fffc"
      stroke-linecap="round"
      stroke-width="26"
    />
    <path
      d="M217 448c18-24 48-39 83-39s65 15 83 39"
      fill="none"
      stroke="#51e0cf"
      stroke-linecap="round"
      stroke-width="38"
    />
    <path
      d="M300 110c-17-19-44-19-60-2M300 110c17-19 44-19 60-2"
      fill="none"
      stroke="#51e0cf"
      stroke-linecap="round"
      stroke-linejoin="round"
      stroke-width="30"
    />
  </g>
</svg>
